<svg width="24" height="24" viewBox="0 0 24 24" fill="none" xmlns="http://www.w3.org/2000/svg">
<path d="M9.70491 13.2398C9.62955 13.2398 8.04867 13.2403 7.31955 13.2396C6.94419 13.2394 6.81027 13.1045 6.81027 12.7267C6.80979 11.7564 6.80955 10.7861 6.81027 9.81575C6.81051 9.44279 6.95211 9.30047 7.32267 9.30023C8.05179 9.29975 9.62403 9.29999 9.70491 9.29999C9.70491 9.23351 9.70467 7.83263 9.70491 7.18751C9.70539 6.23375 9.87555 5.32079 10.3601 4.48487C10.8562 3.62927 11.5781 3.04319 12.5033 2.70431C13.0959 2.48711 13.711 2.40047 14.3398 2.39999C15.1265 2.39951 15.9132 2.40023 16.7002 2.40167C17.0383 2.40215 17.1883 2.55167 17.1891 2.89223C17.1905 3.80495 17.1905 4.71767 17.1891 5.63015C17.1886 5.97431 17.0448 6.11255 16.699 6.11639C16.0541 6.12335 15.4087 6.11903 14.7646 6.14495C14.1139 6.14495 13.7717 6.46271 13.7717 7.13615C13.7561 7.84847 13.7652 8.56151 13.7652 9.29975C13.8262 9.29975 15.6778 9.29951 16.5432 9.29975C16.9363 9.29975 17.0707 9.43487 17.0707 9.83015C17.0707 10.7952 17.0705 11.7605 17.0698 12.7255C17.0695 13.115 16.9433 13.2394 16.5478 13.2396C15.6823 13.2401 13.8379 13.2398 13.7573 13.2398V21.0506C13.7573 21.467 13.6263 21.5998 13.2154 21.5998C12.2136 21.5998 11.2116 21.6 10.2099 21.5998C9.84675 21.5998 9.70515 21.4586 9.70515 21.0955C9.70491 18.5518 9.70491 13.3291 9.70491 13.2398Z" fill="#3D6AD6"/>
</svg>
